<?xml version="1.0" encoding="UTF-8"?>
<svg version="1.1" xmlns="http://www.w3.org/2000/svg" width="32" height="47">
<path d="M0 0 C4.58310323 1.52770108 6.65266374 4.88664274 9 9 C9.8801756 14.01700094 8.84289593 17.25080578 6.2109375 21.44140625 C4.45699172 23.69890421 2.2567061 25.26407223 0 27 C-3.47733142 31.31668728 -3.27077872 34.67468512 -3 40 C-2.85304688 39.11248047 -2.85304688 39.11248047 -2.703125 38.20703125 C-1.59861178 32.37025019 -0.33101762 28.30833677 4.78125 24.765625 C5.4103125 24.34796875 6.039375 23.9303125 6.6875 23.5 C9.33002548 21.72137708 9.88870144 21.33389568 10.9375 18.1875 C10.958125 17.465625 10.97875 16.74375 11 16 C11.66 16 12.32 16 13 16 C15.46053179 19.69079769 15.82097674 23.71363723 15 28 C13 30.4375 13 30.4375 10 33 C8.58456514 34.52368992 7.18995721 36.06689267 5.8125 37.625 C5.13832031 38.38039062 4.46414062 39.13578125 3.76953125 39.9140625 C1.86414749 42.07891866 1.86414749 42.07891866 0 45 C-5.81435334 44.71637301 -9.19901923 42.18303812 -13 38 C-15.58559363 33.77058526 -15.63868679 29.83109238 -15 25 C-12.69071588 19.32300987 -9.77361037 16.87664959 -4.83984375 13.39453125 C-2.36728886 11.52042914 -1.12880147 9.89255378 0 7 C0.25099867 3.29106092 0.25099867 3.29106092 0 0 Z " fill="#F7361E" transform="translate(15,1)"/>
<path d="M0 0 C0 3 0 3 -2 6 C-2.66 6 -3.32 6 -4 6 C-3.85833643 7.91697937 -3.71150416 9.83357723 -3.5625 11.75 C-3.48128906 12.81734375 -3.40007812 13.8846875 -3.31640625 14.984375 C-3.05909227 17.43679962 -2.68187782 19.63921291 -2 22 C-1.34 22 -0.68 22 0 22 C0.33 23.32 0.66 24.64 1 26 C1.99 26 2.98 26 4 26 C4.17015625 25.26394531 4.3403125 24.52789062 4.515625 23.76953125 C6.37102149 16.29859964 8.16603975 11.84764016 14.6875 7.5 C17.33002548 5.72137708 17.88870144 5.33389568 18.9375 2.1875 C18.958125 1.465625 18.97875 0.74375 19 0 C19.66 0 20.32 0 21 0 C23.46053179 3.69079769 23.82097674 7.71363723 23 12 C21 14.4375 21 14.4375 18 17 C16.58456514 18.52368992 15.18995721 20.06689267 13.8125 21.625 C13.13832031 22.38039063 12.46414062 23.13578125 11.76953125 23.9140625 C9.86414749 26.07891866 9.86414749 26.07891866 8 29 C2.18564666 28.71637301 -1.19901923 26.18303812 -5 22 C-7.57480602 17.78823122 -7.67261576 13.81365977 -7 9 C-5.46888547 5.00250886 -3.61222287 2.40814858 0 0 Z " fill="#EEA15B" transform="translate(7,17)"/>
<path d="M0 0 C3 1 3 1 4.1875 3.0625 C4.455625 3.701875 4.72375 4.34125 5 5 C4.34 5 3.68 5 3 5 C3 6.11375 3 7.2275 3 8.375 C3 13.81743502 2.71117895 17.13783467 -1.125 21.3125 C-1.74375 21.869375 -2.3625 22.42625 -3 23 C-3.33 22.01 -3.66 21.02 -4 20 C-4.99 22.475 -4.99 22.475 -6 25 C-7.98 24.67 -9.96 24.34 -12 24 C-12 23.34 -12 22.68 -12 22 C-10.66666667 20.66666667 -9.33333333 19.33333333 -8 18 C-7.67 17.01 -7.34 16.02 -7 15 C-5.3545622 13.31237149 -3.68711423 11.6459651 -2 10 C0.4294516 6.3558226 0.16179575 4.28758728 0 0 Z " fill="#F83A22" transform="translate(15,1)"/>
<path d="M0 0 C0.33 0 0.66 0 1 0 C1.58521922 4.09653452 2.03115816 7.57911277 -0.48828125 11.05078125 C-1.71420434 12.23609405 -2.97533277 13.38639458 -4.2734375 14.4921875 C-6.24070198 16.07739575 -6.24070198 16.07739575 -8 19 C-8.99 19 -9.98 19 -11 19 C-11 16.69 -11 14.38 -11 12 C-10.34 11.67 -9.68 11.34 -9 11 C-8.731875 10.4225 -8.46375 9.845 -8.1875 9.25 C-6.61395815 6.26855228 -4.43255615 4.31092834 -2 2 C-1.34 1.34 -0.68 0.68 0 0 Z " fill="#F87A17" transform="translate(26,23)"/>
<path d="M0 0 C2.99151647 2.33712224 3.92419026 3.49776047 4.5 7.3125 C3.55401305 14.28915378 0.48773554 17.77866497 -5 22 C-7.91352311 25.85001268 -8.53267252 29.23325966 -9 34 C-11 32 -11 32 -11.1875 29.1875 C-11.02065367 26.35111242 -10.64955894 23.76062551 -10 21 C-9.01 21 -8.02 21 -7 21 C-7 20.34 -7 19.68 -7 19 C-6.34 19 -5.68 19 -5 19 C-5 18.34 -5 17.68 -5 17 C-4.34 17 -3.68 17 -3 17 C-2.67 15.35 -2.34 13.7 -2 12 C-1.01 11.67 -0.02 11.34 1 11 C0.67 7.37 0.34 3.74 0 0 Z " fill="#E7685A" transform="translate(20,6)"/>
<path d="M0 0 C0 3 0 3 -2 6 C-2.66 6 -3.32 6 -4 6 C-3.85833643 7.91697937 -3.71150416 9.83357723 -3.5625 11.75 C-3.48128906 12.81734375 -3.40007812 13.8846875 -3.31640625 14.984375 C-3.05909227 17.43679962 -2.68187782 19.63921291 -2 22 C-1.34 22 -0.68 22 0 22 C0.33 23.32 0.66 24.64 1 26 C1.99 26 2.98 26 4 26 C4.33 25.34 4.66 24.68 5 24 C5.33 25.32 5.66 26.64 6 28 C2.8206091 27.92430022 0.69110312 27.63231963 -1.69921875 25.4453125 C-5.80193061 20.65715967 -7.35044508 17.73349132 -7.2890625 11.390625 C-6.81627779 7.48056766 -5.28226055 5.19516477 -3 2 C-2.01 1.34 -1.02 0.68 0 0 Z " fill="#E06D60" transform="translate(7,17)"/>
<path d="M0 0 C1.485 0.99 1.485 0.99 3 2 C3.66 2.33 4.32 2.66 5 3 C5.6328125 5.50390625 5.6328125 5.50390625 6.125 8.5625 C6.29257813 9.57441406 6.46015625 10.58632813 6.6328125 11.62890625 C6.75398437 12.41136719 6.87515625 13.19382812 7 14 C6.01 14 5.02 14 4 14 C3.67 12.68 3.34 11.36 3 10 C2.34 10 1.68 10 1 10 C-0.85064319 6.87703962 -1.29356154 4.62059232 -1 1 C-0.67 0.67 -0.34 0.34 0 0 Z " fill="#EF311B" transform="translate(4,29)"/>
<path d="M0 0 C0.08131463 1.43655854 0.13933559 2.8744483 0.1875 4.3125 C0.22230469 5.11300781 0.25710937 5.91351563 0.29296875 6.73828125 C-0.06198392 9.47851584 -0.89366282 10.29171079 -3 12 C-3.99 11.67 -4.98 11.34 -6 11 C-6.3125 7.75 -6.3125 7.75 -6 4 C-2 0 -2 0 0 0 Z " fill="#F97914" transform="translate(27,23)"/>
<path d="M0 0 C3 1 3 1 4.1875 3.0625 C4.455625 3.701875 4.72375 4.34125 5 5 C4.34 5 3.68 5 3 5 C3 6.98 3 8.96 3 11 C2.01 11 1.02 11 0 11 C-1.70532323 12.94009522 -1.70532323 12.94009522 -3 15 C-3.66 14.67 -4.32 14.34 -5 14 C-4.175 12.989375 -3.35 11.97875 -2.5 10.9375 C0.17261016 7.24854513 0.46733615 4.57989423 0 0 Z " fill="#E45841" transform="translate(15,1)"/>
<path d="M0 0 C0.33 0.66 0.66 1.32 1 2 C-3.625 6.875 -3.625 6.875 -7 8 C-5.50902342 4.2047869 -3.24299151 2.38957269 0 0 Z " fill="#DB9262" transform="translate(25,38)"/>
<path d="M0 0 C1.9451 2.91765 2.45276317 4.62537285 3 8 C2.01 8 1.02 8 0 8 C-0.12375 7.360625 -0.2475 6.72125 -0.375 6.0625 C-0.684375 5.0415625 -0.684375 5.0415625 -1 4 C-1.66 3.67 -2.32 3.34 -3 3 C-2.01 2.01 -1.02 1.02 0 0 Z " fill="#D33523" transform="translate(8,35)"/>
<path d="M0 0 C0.99 0 1.98 0 3 0 C2.1875 2.4375 2.1875 2.4375 1 5 C0.01 5.33 -0.98 5.66 -2 6 C-1.125 1.125 -1.125 1.125 0 0 Z " fill="#F27F2E" transform="translate(18,36)"/>
</svg>
